<svg xmlns="http://www.w3.org/2000/svg" viewBox="0 0 48 48" width="48px" height="48px">
  <path fill="#4caf50" d="M45,16.2l-5,2.75v18.5c0,1.4-1.1,2.5-2.5,2.5h-5V22.6L45,16.2z"/>
  <path fill="#1e88e5" d="M3,16.2l5,2.75v18.5c0,1.4,1.1,2.5,2.5,2.5h5V22.6L3,16.2z"/>
  <polygon fill="#e53935" points="35,11.2 24,19.2 13,11.2 13,39.9 17.5,39.9 17.5,22.6 24,27.4 30.5,22.6 30.5,39.9 35,39.9"/>
  <path fill="#c62828" d="M3,16.2l11,7.9V11.2L3,16.2z"/>
  <path fill="#fbc02d" d="M45,16.2l-11,7.9V11.2L45,16.2z"/>
  <polygon fill="#1565c0" points="3,16.2 3,11.2 24,26.4 45,11.2 45,16.2 24,31.4"/>
</svg>
